<svg version="1.1" id="Layer_1" xmlns="http://www.w3.org/2000/svg" xmlns:xlink="http://www.w3.org/1999/xlink" x="0px" y="0px"
	 width="16px" height="16px" viewBox="0 0 16 16" enable-background="new 0 0 16 16" xml:space="preserve">
<polygon fill="#B3B3B3" points="9.4,7 2.4,7 2.4,5.5 9.4,5.5 "/>
<polygon fill="#B3B3B3" points="11.2,13 2.4,13 2.4,11.5 11.2,11.5 "/>
<polygon fill="#B3B3B3" points="13.6,4.1 2.4,4.1 2.4,2.7 13.6,2.7 "/>
<polygon fill="#B3B3B3" points="13.6,10.1 2.4,10.1 2.4,8.7 13.6,8.7 "/>
<path fill="#B3B3B3" d="M13.6,12.2c0,0.4-0.3,0.7-0.7,0.7c-0.4,0-0.7-0.3-0.7-0.7c0-0.4,0.3-0.7,0.7-0.7
	C13.3,11.5,13.6,11.8,13.6,12.2z"/>
</svg>
