<?xml version="1.0" encoding="utf-8"?>
<!-- Generator: Adobe Illustrator 15.1.0, SVG Export Plug-In . SVG Version: 6.00 Build 0)  -->
<!DOCTYPE svg PUBLIC "-//W3C//DTD SVG 1.1//EN" "http://www.w3.org/Graphics/SVG/1.1/DTD/svg11.dtd">
<svg version="1.1" id="Layer_1" xmlns="http://www.w3.org/2000/svg" xmlns:xlink="http://www.w3.org/1999/xlink" x="0px" y="0px"
	 width="40px" height="40px" viewBox="0 0 40 40" enable-background="new 0 0 40 40" xml:space="preserve">
<path fill="#FFFFFF" d="M30.625,21.792v-3.584h-2.748c-0.205-0.904-0.562-1.748-1.043-2.509l1.945-1.945l-2.533-2.534l-1.945,1.945
	c-0.762-0.479-1.605-0.837-2.51-1.042V9.375h-3.584v2.748c-0.904,0.205-1.748,0.562-2.51,1.042l-1.943-1.944l-2.535,2.534
	l1.945,1.945c-0.48,0.76-0.836,1.604-1.041,2.508H9.375v3.584h2.748c0.205,0.904,0.561,1.748,1.041,2.509l-1.945,1.945l2.535,2.534
	l1.945-1.945c0.76,0.479,1.604,0.837,2.508,1.042v2.748h3.584v-2.748c0.904-0.205,1.748-0.562,2.508-1.041l1.945,1.945l2.535-2.535
	l-1.945-1.945c0.48-0.761,0.838-1.604,1.043-2.509H30.625z M20,25c-2.762,0-5-2.238-5-5s2.238-5,5-5s5,2.238,5,5S22.762,25,20,25z"
	/>
</svg>
